<svg xmlns="http://www.w3.org/2000/svg" width="1040" height="500" font-family="-apple-system,Segoe UI,Roboto,sans-serif"><rect width="1040" height="500" fill="#ffffff"/><text x="70" y="30" font-size="18" font-weight="600" fill="#111">When is CBOR worth it? — CBOR/JSON ratios per payload (log scale)</text><text x="70" y="48" font-size="12" fill="#6b7280">size ratio &lt; 1 = CBOR smaller · speed ratio &gt; 1 = CBOR faster · dashed line = break-even (1.0)</text><line x1="70" y1="372.0" x2="875.0" y2="372.0" stroke="#eef2f7"/><text x="62.0" y="376.0" font-size="11" fill="#6b7280" text-anchor="end">0.1</text><line x1="70" y1="289.3" x2="875.0" y2="289.3" stroke="#eef2f7"/><text x="62.0" y="293.3" font-size="11" fill="#6b7280" text-anchor="end">1x</text><line x1="70" y1="206.6" x2="875.0" y2="206.6" stroke="#eef2f7"/><text x="62.0" y="210.6" font-size="11" fill="#6b7280" text-anchor="end">10x</text><line x1="70" y1="123.9" x2="875.0" y2="123.9" stroke="#eef2f7"/><text x="62.0" y="127.9" font-size="11" fill="#6b7280" text-anchor="end">100x</text><line x1="70" y1="289.3" x2="875.0" y2="289.3" stroke="#111" stroke-dasharray="5 4" stroke-width="1.4"/><rect x="74.1" y="292.0" width="13.0" height="80.0" fill="#2563eb"/><rect x="91.2" y="289.7" width="13.0" height="82.3" fill="#16a34a"/><text x="89.2" y="386.0" font-size="10" fill="#374151" text-anchor="end" transform="rotate(-40 89.2 386.0)">dom:7</text><rect x="112.5" y="292.0" width="13.0" height="80.0" fill="#2563eb"/><rect x="129.5" y="287.5" width="13.0" height="84.5" fill="#16a34a"/><text x="127.5" y="386.0" font-size="10" fill="#374151" text-anchor="end" transform="rotate(-40 127.5 386.0)">dom:43</text><rect x="150.8" y="292.0" width="13.0" height="80.0" fill="#2563eb"/><rect x="167.8" y="286.3" width="13.0" height="85.7" fill="#16a34a"/><text x="165.8" y="386.0" font-size="10" fill="#374151" text-anchor="end" transform="rotate(-40 165.8 386.0)">dom:187</text><rect x="189.1" y="292.0" width="13.0" height="80.0" fill="#2563eb"/><rect x="206.2" y="287.0" width="13.0" height="85.0" fill="#16a34a"/><text x="204.2" y="386.0" font-size="10" fill="#374151" text-anchor="end" transform="rotate(-40 204.2 386.0)">dom:907</text><rect x="227.5" y="292.0" width="13.0" height="80.0" fill="#2563eb"/><rect x="244.5" y="288.5" width="13.0" height="83.5" fill="#16a34a"/><text x="242.5" y="386.0" font-size="10" fill="#374151" text-anchor="end" transform="rotate(-40 242.5 386.0)">dom:3k</text><rect x="265.8" y="292.1" width="13.0" height="79.9" fill="#2563eb"/><rect x="282.8" y="287.0" width="13.0" height="85.0" fill="#16a34a"/><text x="280.8" y="386.0" font-size="10" fill="#374151" text-anchor="end" transform="rotate(-40 280.8 386.0)">dom:7k</text><rect x="304.1" y="292.1" width="13.0" height="79.9" fill="#2563eb"/><rect x="321.2" y="283.2" width="13.0" height="88.8" fill="#16a34a"/><text x="319.2" y="386.0" font-size="10" fill="#374151" text-anchor="end" transform="rotate(-40 319.2 386.0)">dom:17k</text><rect x="342.5" y="292.1" width="13.0" height="79.9" fill="#2563eb"/><rect x="359.5" y="284.3" width="13.0" height="87.7" fill="#16a34a"/><text x="357.5" y="386.0" font-size="10" fill="#374151" text-anchor="end" transform="rotate(-40 357.5 386.0)">dom:25k</text><rect x="380.8" y="292.2" width="13.0" height="79.8" fill="#2563eb"/><rect x="397.8" y="286.6" width="13.0" height="85.4" fill="#16a34a"/><text x="395.8" y="386.0" font-size="10" fill="#374151" text-anchor="end" transform="rotate(-40 395.8 386.0)">dom:40k</text><rect x="419.1" y="292.2" width="13.0" height="79.8" fill="#2563eb"/><rect x="436.2" y="290.6" width="13.0" height="81.4" fill="#16a34a"/><text x="434.2" y="386.0" font-size="10" fill="#374151" text-anchor="end" transform="rotate(-40 434.2 386.0)">dom:56k</text><rect x="457.5" y="284.2" width="13.0" height="87.8" fill="#2563eb"/><rect x="474.5" y="277.4" width="13.0" height="94.6" fill="#16a34a"/><text x="472.5" y="386.0" font-size="10" fill="#374151" text-anchor="end" transform="rotate(-40 472.5 386.0)">numeric:256</text><rect x="495.8" y="284.2" width="13.0" height="87.8" fill="#2563eb"/><rect x="512.8" y="275.5" width="13.0" height="96.5" fill="#16a34a"/><text x="510.8" y="386.0" font-size="10" fill="#374151" text-anchor="end" transform="rotate(-40 510.8 386.0)">numeric:1k</text><rect x="534.1" y="284.2" width="13.0" height="87.8" fill="#2563eb"/><rect x="551.2" y="282.7" width="13.0" height="89.3" fill="#16a34a"/><text x="549.2" y="386.0" font-size="10" fill="#374151" text-anchor="end" transform="rotate(-40 549.2 386.0)">numeric:4k</text><rect x="572.5" y="284.3" width="13.0" height="87.7" fill="#2563eb"/><rect x="589.5" y="275.2" width="13.0" height="96.8" fill="#16a34a"/><text x="587.5" y="386.0" font-size="10" fill="#374151" text-anchor="end" transform="rotate(-40 587.5 386.0)">numeric:16k</text><rect x="610.8" y="284.3" width="13.0" height="87.7" fill="#2563eb"/><rect x="627.8" y="272.2" width="13.0" height="99.8" fill="#16a34a"/><text x="625.8" y="386.0" font-size="10" fill="#374151" text-anchor="end" transform="rotate(-40 625.8 386.0)">numeric:66k</text><rect x="649.1" y="284.3" width="13.0" height="87.7" fill="#2563eb"/><rect x="666.2" y="270.7" width="13.0" height="101.3" fill="#16a34a"/><text x="664.2" y="386.0" font-size="10" fill="#374151" text-anchor="end" transform="rotate(-40 664.2 386.0)">numeric:200k</text><rect x="687.5" y="333.9" width="13.0" height="38.1" fill="#2563eb"/><rect x="704.5" y="168.1" width="13.0" height="203.9" fill="#16a34a"/><text x="702.5" y="386.0" font-size="10" fill="#374151" text-anchor="end" transform="rotate(-40 702.5 386.0)">binary:1k</text><rect x="725.8" y="334.9" width="13.0" height="37.1" fill="#2563eb"/><rect x="742.8" y="112.4" width="13.0" height="259.6" fill="#16a34a"/><text x="740.8" y="386.0" font-size="10" fill="#374151" text-anchor="end" transform="rotate(-40 740.8 386.0)">binary:16k</text><rect x="764.1" y="335.0" width="13.0" height="37.0" fill="#2563eb"/><rect x="781.2" y="73.4" width="13.0" height="298.6" fill="#16a34a"/><text x="779.2" y="386.0" font-size="10" fill="#374151" text-anchor="end" transform="rotate(-40 779.2 386.0)">binary:131k</text><rect x="802.5" y="335.0" width="13.0" height="37.0" fill="#2563eb"/><rect x="819.5" y="87.3" width="13.0" height="284.7" fill="#16a34a"/><text x="817.5" y="386.0" font-size="10" fill="#374151" text-anchor="end" transform="rotate(-40 817.5 386.0)">binary:1.0M</text><rect x="840.8" y="335.0" width="13.0" height="37.0" fill="#2563eb"/><rect x="857.8" y="141.3" width="13.0" height="230.7" fill="#16a34a"/><text x="855.8" y="386.0" font-size="10" fill="#374151" text-anchor="end" transform="rotate(-40 855.8 386.0)">binary:3.5M</text><rect x="897.0" y="64" width="14" height="14" rx="3" fill="#2563eb"/><text x="917.0" y="76.0" font-size="12" fill="#374151">size  (cbor/json)</text><rect x="897.0" y="88.0" width="14" height="14" rx="3" fill="#16a34a"/><text x="917.0" y="100.0" font-size="12" fill="#374151">speed (cbor/json)</text></svg>