<svg xmlns="http://www.w3.org/2000/svg" width="1000" height="480" font-family="-apple-system,Segoe UI,Roboto,sans-serif"><rect width="1000" height="480" fill="#ffffff"/><text x="70" y="30" font-size="18" font-weight="600" fill="#111">When is CBOR worth it? — CBOR/JSON ratios per payload</text><text x="70" y="48" font-size="12" fill="#6b7280">size ratio &lt; 1.0 = CBOR smaller · speed ratio &gt; 1.0 = CBOR faster · dashed line = break-even</text><line x1="70" y1="360.0" x2="840.0" y2="360.0" stroke="#eef2f7"/><text x="62.0" y="364.0" font-size="11" fill="#6b7280" text-anchor="end">0.0</text><line x1="70" y1="299.2" x2="840.0" y2="299.2" stroke="#eef2f7"/><text x="62.0" y="303.2" font-size="11" fill="#6b7280" text-anchor="end">87.0</text><line x1="70" y1="238.4" x2="840.0" y2="238.4" stroke="#eef2f7"/><text x="62.0" y="242.4" font-size="11" fill="#6b7280" text-anchor="end">174.0</text><line x1="70" y1="177.6" x2="840.0" y2="177.6" stroke="#eef2f7"/><text x="62.0" y="181.6" font-size="11" fill="#6b7280" text-anchor="end">260.9</text><line x1="70" y1="116.8" x2="840.0" y2="116.8" stroke="#eef2f7"/><text x="62.0" y="120.8" font-size="11" fill="#6b7280" text-anchor="end">347.9</text><line x1="70" y1="56.0" x2="840.0" y2="56.0" stroke="#eef2f7"/><text x="62.0" y="60.0" font-size="11" fill="#6b7280" text-anchor="end">434.9</text><line x1="70" y1="359.3" x2="840.0" y2="359.3" stroke="#111" stroke-dasharray="5 4" stroke-width="1.2"/><rect x="73.9" y="359.4" width="12.5" height="0.6" fill="#2563eb"/><rect x="90.3" y="359.3" width="12.5" height="0.7" fill="#16a34a"/><text x="88.3" y="374.0" font-size="10" fill="#374151" text-anchor="end" transform="rotate(-40 88.3 374.0)">dom:7</text><rect x="110.5" y="359.4" width="12.5" height="0.6" fill="#2563eb"/><rect x="127.0" y="359.0" width="12.5" height="1.0" fill="#16a34a"/><text x="125.0" y="374.0" font-size="10" fill="#374151" text-anchor="end" transform="rotate(-40 125.0 374.0)">dom:43</text><rect x="147.2" y="359.4" width="12.5" height="0.6" fill="#2563eb"/><rect x="163.7" y="359.1" width="12.5" height="0.9" fill="#16a34a"/><text x="161.7" y="374.0" font-size="10" fill="#374151" text-anchor="end" transform="rotate(-40 161.7 374.0)">dom:187</text><rect x="183.9" y="359.4" width="12.5" height="0.6" fill="#2563eb"/><rect x="200.3" y="359.3" width="12.5" height="0.7" fill="#16a34a"/><text x="198.3" y="374.0" font-size="10" fill="#374151" text-anchor="end" transform="rotate(-40 198.3 374.0)">dom:907</text><rect x="220.5" y="359.4" width="12.5" height="0.6" fill="#2563eb"/><rect x="237.0" y="359.2" width="12.5" height="0.8" fill="#16a34a"/><text x="235.0" y="374.0" font-size="10" fill="#374151" text-anchor="end" transform="rotate(-40 235.0 374.0)">dom:3k</text><rect x="257.2" y="359.4" width="12.5" height="0.6" fill="#2563eb"/><rect x="273.7" y="359.1" width="12.5" height="0.9" fill="#16a34a"/><text x="271.7" y="374.0" font-size="10" fill="#374151" text-anchor="end" transform="rotate(-40 271.7 374.0)">dom:7k</text><rect x="293.9" y="359.4" width="12.5" height="0.6" fill="#2563eb"/><rect x="310.3" y="359.0" width="12.5" height="1.0" fill="#16a34a"/><text x="308.3" y="374.0" font-size="10" fill="#374151" text-anchor="end" transform="rotate(-40 308.3 374.0)">dom:17k</text><rect x="330.5" y="359.4" width="12.5" height="0.6" fill="#2563eb"/><rect x="347.0" y="359.2" width="12.5" height="0.8" fill="#16a34a"/><text x="345.0" y="374.0" font-size="10" fill="#374151" text-anchor="end" transform="rotate(-40 345.0 374.0)">dom:25k</text><rect x="367.2" y="359.4" width="12.5" height="0.6" fill="#2563eb"/><rect x="383.7" y="359.2" width="12.5" height="0.8" fill="#16a34a"/><text x="381.7" y="374.0" font-size="10" fill="#374151" text-anchor="end" transform="rotate(-40 381.7 374.0)">dom:40k</text><rect x="403.9" y="359.4" width="12.5" height="0.6" fill="#2563eb"/><rect x="420.3" y="359.0" width="12.5" height="1.0" fill="#16a34a"/><text x="418.3" y="374.0" font-size="10" fill="#374151" text-anchor="end" transform="rotate(-40 418.3 374.0)">dom:56k</text><rect x="440.5" y="359.2" width="12.5" height="0.8" fill="#2563eb"/><rect x="457.0" y="359.0" width="12.5" height="1.0" fill="#16a34a"/><text x="455.0" y="374.0" font-size="10" fill="#374151" text-anchor="end" transform="rotate(-40 455.0 374.0)">numeric:256</text><rect x="477.2" y="359.2" width="12.5" height="0.8" fill="#2563eb"/><rect x="493.7" y="358.9" width="12.5" height="1.1" fill="#16a34a"/><text x="491.7" y="374.0" font-size="10" fill="#374151" text-anchor="end" transform="rotate(-40 491.7 374.0)">numeric:1k</text><rect x="513.9" y="359.2" width="12.5" height="0.8" fill="#2563eb"/><rect x="530.3" y="359.0" width="12.5" height="1.0" fill="#16a34a"/><text x="528.3" y="374.0" font-size="10" fill="#374151" text-anchor="end" transform="rotate(-40 528.3 374.0)">numeric:4k</text><rect x="550.5" y="359.2" width="12.5" height="0.8" fill="#2563eb"/><rect x="567.0" y="358.7" width="12.5" height="1.3" fill="#16a34a"/><text x="565.0" y="374.0" font-size="10" fill="#374151" text-anchor="end" transform="rotate(-40 565.0 374.0)">numeric:16k</text><rect x="587.2" y="359.2" width="12.5" height="0.8" fill="#2563eb"/><rect x="603.7" y="359.1" width="12.5" height="0.9" fill="#16a34a"/><text x="601.7" y="374.0" font-size="10" fill="#374151" text-anchor="end" transform="rotate(-40 601.7 374.0)">numeric:66k</text><rect x="623.9" y="359.2" width="12.5" height="0.8" fill="#2563eb"/><rect x="640.3" y="359.0" width="12.5" height="1.0" fill="#16a34a"/><text x="638.3" y="374.0" font-size="10" fill="#374151" text-anchor="end" transform="rotate(-40 638.3 374.0)">numeric:200k</text><rect x="660.5" y="359.8" width="12.5" height="0.2" fill="#2563eb"/><rect x="677.0" y="339.8" width="12.5" height="20.2" fill="#16a34a"/><text x="675.0" y="374.0" font-size="10" fill="#374151" text-anchor="end" transform="rotate(-40 675.0 374.0)">binary:1k</text><rect x="697.2" y="359.8" width="12.5" height="0.2" fill="#2563eb"/><rect x="713.7" y="243.8" width="12.5" height="116.2" fill="#16a34a"/><text x="711.7" y="374.0" font-size="10" fill="#374151" text-anchor="end" transform="rotate(-40 711.7 374.0)">binary:16k</text><rect x="733.9" y="359.8" width="12.5" height="0.2" fill="#2563eb"/><rect x="750.3" y="70.5" width="12.5" height="289.5" fill="#16a34a"/><text x="748.3" y="374.0" font-size="10" fill="#374151" text-anchor="end" transform="rotate(-40 748.3 374.0)">binary:131k</text><rect x="770.5" y="359.8" width="12.5" height="0.2" fill="#2563eb"/><rect x="787.0" y="182.2" width="12.5" height="177.8" fill="#16a34a"/><text x="785.0" y="374.0" font-size="10" fill="#374151" text-anchor="end" transform="rotate(-40 785.0 374.0)">binary:1.0M</text><rect x="807.2" y="359.8" width="12.5" height="0.2" fill="#2563eb"/><rect x="823.7" y="303.2" width="12.5" height="56.8" fill="#16a34a"/><text x="821.7" y="374.0" font-size="10" fill="#374151" text-anchor="end" transform="rotate(-40 821.7 374.0)">binary:3.5M</text><rect x="862.0" y="56" width="14" height="14" rx="3" fill="#2563eb"/><text x="882.0" y="68.0" font-size="12" fill="#374151">size  (cbor/json)</text><rect x="862.0" y="80.0" width="14" height="14" rx="3" fill="#16a34a"/><text x="882.0" y="92.0" font-size="12" fill="#374151">speed (cbor/json)</text></svg>