<svg xmlns="http://www.w3.org/2000/svg" width="840" height="470" font-family="-apple-system,Segoe UI,Roboto,sans-serif"><rect width="840" height="470" fill="#ffffff"/><text x="80" y="30" font-size="18" font-weight="600" fill="#111">Wire size per message — CBOR vs JSON (DOM)</text><line x1="80" y1="404.0" x2="665.0" y2="404.0" stroke="#e5e7eb"/><text x="72.0" y="408.0" font-size="11" fill="#6b7280" text-anchor="end">0</text><line x1="80" y1="334.0" x2="665.0" y2="334.0" stroke="#e5e7eb"/><text x="72.0" y="338.0" font-size="11" fill="#6b7280" text-anchor="end">3k</text><line x1="80" y1="264.0" x2="665.0" y2="264.0" stroke="#e5e7eb"/><text x="72.0" y="268.0" font-size="11" fill="#6b7280" text-anchor="end">5k</text><line x1="80" y1="194.0" x2="665.0" y2="194.0" stroke="#e5e7eb"/><text x="72.0" y="198.0" font-size="11" fill="#6b7280" text-anchor="end">8k</text><line x1="80" y1="124.0" x2="665.0" y2="124.0" stroke="#e5e7eb"/><text x="72.0" y="128.0" font-size="11" fill="#6b7280" text-anchor="end">11k</text><line x1="80" y1="54.0" x2="665.0" y2="54.0" stroke="#e5e7eb"/><text x="72.0" y="58.0" font-size="11" fill="#6b7280" text-anchor="end">13k</text><line x1="103.2" y1="54" x2="103.2" y2="404.0" stroke="#f3f4f6"/><text x="103.2" y="422.0" font-size="11" fill="#6b7280" text-anchor="middle">10</text><line x1="253.1" y1="54" x2="253.1" y2="404.0" stroke="#f3f4f6"/><text x="253.1" y="422.0" font-size="11" fill="#6b7280" text-anchor="middle">100</text><line x1="403.0" y1="54" x2="403.0" y2="404.0" stroke="#f3f4f6"/><text x="403.0" y="422.0" font-size="11" fill="#6b7280" text-anchor="middle">1k</text><line x1="552.9" y1="54" x2="552.9" y2="404.0" stroke="#f3f4f6"/><text x="552.9" y="422.0" font-size="11" fill="#6b7280" text-anchor="middle">10k</text><line x1="80" y1="404.0" x2="665.0" y2="404.0" stroke="#9ca3af" stroke-width="1.5"/><line x1="80" y1="54" x2="80" y2="404.0" stroke="#9ca3af" stroke-width="1.5"/><text x="372.5" y="450.0" font-size="12" fill="#374151" text-anchor="middle">DOM nodes (log)</text><text x="20" y="229.0" font-size="12" fill="#374151" text-anchor="middle" transform="rotate(-90 20 229.0)">message size (KiB)</text><path d="M80.0 404.0 L198.2 403.8 L293.8 402.9 L396.6 398.8 L471.2 387.7 L527.2 365.3 L587.8 305.5 L612.2 260.4 L643.8 170.2 L665.0 79.9" fill="none" stroke="#dc2626" stroke-width="2.5"/><circle cx="80.0" cy="404.0" r="3.2" fill="#dc2626"/><circle cx="198.2" cy="403.8" r="3.2" fill="#dc2626"/><circle cx="293.8" cy="402.9" r="3.2" fill="#dc2626"/><circle cx="396.6" cy="398.8" r="3.2" fill="#dc2626"/><circle cx="471.2" cy="387.7" r="3.2" fill="#dc2626"/><circle cx="527.2" cy="365.3" r="3.2" fill="#dc2626"/><circle cx="587.8" cy="305.5" r="3.2" fill="#dc2626"/><circle cx="612.2" cy="260.4" r="3.2" fill="#dc2626"/><circle cx="643.8" cy="170.2" r="3.2" fill="#dc2626"/><circle cx="665.0" cy="79.9" r="3.2" fill="#dc2626"/><rect x="689.0" y="64.0" width="14" height="14" rx="3" fill="#dc2626"/><text x="709.0" y="76.0" font-size="12" fill="#374151">JSON</text><path d="M80.0 404.0 L198.2 403.8 L293.8 403.0 L396.6 399.2 L471.2 388.9 L527.2 368.2 L587.8 312.9 L612.2 271.3 L643.8 188.3 L665.0 105.2" fill="none" stroke="#2563eb" stroke-width="2.5"/><circle cx="80.0" cy="404.0" r="3.2" fill="#2563eb"/><circle cx="198.2" cy="403.8" r="3.2" fill="#2563eb"/><circle cx="293.8" cy="403.0" r="3.2" fill="#2563eb"/><circle cx="396.6" cy="399.2" r="3.2" fill="#2563eb"/><circle cx="471.2" cy="388.9" r="3.2" fill="#2563eb"/><circle cx="527.2" cy="368.2" r="3.2" fill="#2563eb"/><circle cx="587.8" cy="312.9" r="3.2" fill="#2563eb"/><circle cx="612.2" cy="271.3" r="3.2" fill="#2563eb"/><circle cx="643.8" cy="188.3" r="3.2" fill="#2563eb"/><circle cx="665.0" cy="105.2" r="3.2" fill="#2563eb"/><rect x="689.0" y="88.0" width="14" height="14" rx="3" fill="#2563eb"/><text x="709.0" y="100.0" font-size="12" fill="#374151">CBOR (crdtp)</text></svg>