<svg xmlns="http://www.w3.org/2000/svg" width="840" height="470" font-family="-apple-system,Segoe UI,Roboto,sans-serif"><rect width="840" height="470" fill="#ffffff"/><text x="80" y="30" font-size="18" font-weight="600" fill="#111">Throughput — encode+decode round-trips/sec (DOM)</text><line x1="80" y1="404.0" x2="665.0" y2="404.0" stroke="#e5e7eb"/><text x="72.0" y="408.0" font-size="11" fill="#6b7280" text-anchor="end">0</text><line x1="80" y1="334.0" x2="665.0" y2="334.0" stroke="#e5e7eb"/><text x="72.0" y="338.0" font-size="11" fill="#6b7280" text-anchor="end">17k</text><line x1="80" y1="264.0" x2="665.0" y2="264.0" stroke="#e5e7eb"/><text x="72.0" y="268.0" font-size="11" fill="#6b7280" text-anchor="end">35k</text><line x1="80" y1="194.0" x2="665.0" y2="194.0" stroke="#e5e7eb"/><text x="72.0" y="198.0" font-size="11" fill="#6b7280" text-anchor="end">52k</text><line x1="80" y1="124.0" x2="665.0" y2="124.0" stroke="#e5e7eb"/><text x="72.0" y="128.0" font-size="11" fill="#6b7280" text-anchor="end">70k</text><line x1="80" y1="54.0" x2="665.0" y2="54.0" stroke="#e5e7eb"/><text x="72.0" y="58.0" font-size="11" fill="#6b7280" text-anchor="end">87k</text><line x1="103.2" y1="54" x2="103.2" y2="404.0" stroke="#f3f4f6"/><text x="103.2" y="422.0" font-size="11" fill="#6b7280" text-anchor="middle">10</text><line x1="253.1" y1="54" x2="253.1" y2="404.0" stroke="#f3f4f6"/><text x="253.1" y="422.0" font-size="11" fill="#6b7280" text-anchor="middle">100</text><line x1="403.0" y1="54" x2="403.0" y2="404.0" stroke="#f3f4f6"/><text x="403.0" y="422.0" font-size="11" fill="#6b7280" text-anchor="middle">1k</text><line x1="552.9" y1="54" x2="552.9" y2="404.0" stroke="#f3f4f6"/><text x="552.9" y="422.0" font-size="11" fill="#6b7280" text-anchor="middle">10k</text><line x1="80" y1="404.0" x2="665.0" y2="404.0" stroke="#9ca3af" stroke-width="1.5"/><line x1="80" y1="54" x2="80" y2="404.0" stroke="#9ca3af" stroke-width="1.5"/><text x="372.5" y="450.0" font-size="12" fill="#374151" text-anchor="middle">DOM nodes (log)</text><text x="20" y="229.0" font-size="12" fill="#374151" text-anchor="middle" transform="rotate(-90 20 229.0)">round-trips / sec</text><path d="M80.0 98.6 L198.2 366.3 L293.8 392.2 L396.6 400.4 L471.2 402.5 L527.2 403.3 L587.8 403.8 L612.2 403.8 L643.8 403.9 L665.0 403.9" fill="none" stroke="#dc2626" stroke-width="2.5"/><circle cx="80.0" cy="98.6" r="3.2" fill="#dc2626"/><circle cx="198.2" cy="366.3" r="3.2" fill="#dc2626"/><circle cx="293.8" cy="392.2" r="3.2" fill="#dc2626"/><circle cx="396.6" cy="400.4" r="3.2" fill="#dc2626"/><circle cx="471.2" cy="402.5" r="3.2" fill="#dc2626"/><circle cx="527.2" cy="403.3" r="3.2" fill="#dc2626"/><circle cx="587.8" cy="403.8" r="3.2" fill="#dc2626"/><circle cx="612.2" cy="403.8" r="3.2" fill="#dc2626"/><circle cx="643.8" cy="403.9" r="3.2" fill="#dc2626"/><circle cx="665.0" cy="403.9" r="3.2" fill="#dc2626"/><rect x="689.0" y="64.0" width="14" height="14" rx="3" fill="#dc2626"/><text x="709.0" y="76.0" font-size="12" fill="#374151">JSON</text><path d="M80.0 79.9 L198.2 350.6 L293.8 388.3 L396.6 400.3 L471.2 402.3 L527.2 403.1 L587.8 403.7 L612.2 403.8 L643.8 403.9 L665.0 403.9" fill="none" stroke="#2563eb" stroke-width="2.5"/><circle cx="80.0" cy="79.9" r="3.2" fill="#2563eb"/><circle cx="198.2" cy="350.6" r="3.2" fill="#2563eb"/><circle cx="293.8" cy="388.3" r="3.2" fill="#2563eb"/><circle cx="396.6" cy="400.3" r="3.2" fill="#2563eb"/><circle cx="471.2" cy="402.3" r="3.2" fill="#2563eb"/><circle cx="527.2" cy="403.1" r="3.2" fill="#2563eb"/><circle cx="587.8" cy="403.7" r="3.2" fill="#2563eb"/><circle cx="612.2" cy="403.8" r="3.2" fill="#2563eb"/><circle cx="643.8" cy="403.9" r="3.2" fill="#2563eb"/><circle cx="665.0" cy="403.9" r="3.2" fill="#2563eb"/><rect x="689.0" y="88.0" width="14" height="14" rx="3" fill="#2563eb"/><text x="709.0" y="100.0" font-size="12" fill="#374151">CBOR (crdtp)</text></svg>